<svg xmlns="http://www.w3.org/2000/svg" width="1200" height="630" viewBox="0 0 1200 630">
  <defs>
    <linearGradient id="ogGradient" x1="0%" y1="0%" x2="100%" y2="100%">
      <stop offset="0%" stop-color="#fff3f8" />
      <stop offset="50%" stop-color="#f0f7ff" />
      <stop offset="100%" stop-color="#fff9fb" />
    </linearGradient>
    <linearGradient id="textGradient" x1="0%" y1="0%" x2="100%" y2="0%">
      <stop offset="0%" stop-color="#ff7fbf" />
      <stop offset="50%" stop-color="#9b59b6" />
      <stop offset="100%" stop-color="#3498db" />
    </linearGradient>
  </defs>
  <!-- Background -->
  <rect width="1200" height="630" fill="url(#ogGradient)" />
  
  <!-- Decorative circles -->
  <circle cx="200" cy="150" r="120" fill="#ffb3d6" opacity="0.2" />
  <circle cx="1000" cy="480" r="100" fill="#b3d9ff" opacity="0.2" />
  
  <!-- Main logo area with cat -->
  <g transform="translate(600, 200)">
    <!-- Cat face logo -->
    <g transform="scale(3)">
      <!-- Head -->
      <circle cx="0" cy="0" r="28" fill="#ff7fbf"/>
      
      <!-- Ears -->
      <path d="M-12 -20 L-4 -8 L-8 -8 Z" fill="#ff7fbf"/>
      <path d="M12 -20 L4 -8 L8 -8 Z" fill="#ff7fbf"/>
      <path d="M-12 -20 L-6 -12 L-8 -12 Z" fill="#ffb3d6"/>
      <path d="M12 -20 L6 -12 L8 -12 Z" fill="#ffb3d6"/>
      
      <!-- Eyes -->
      <ellipse cx="-8" cy="-2" rx="4" ry="6" fill="#ffffff"/>
      <ellipse cx="8" cy="-2" rx="4" ry="6" fill="#ffffff"/>
      <circle cx="-8" cy="-2" r="2" fill="#333333"/>
      <circle cx="8" cy="-2" r="2" fill="#333333"/>
      
      <!-- Nose -->
      <path d="M0 4 L-2 8 L2 8 Z" fill="#ffb3d6"/>
      
      <!-- Mouth -->
      <path d="M0 8 Q-4 12 -6 10" stroke="#333333" stroke-width="2" fill="none" stroke-linecap="round"/>
      <path d="M0 8 Q4 12 6 10" stroke="#333333" stroke-width="2" fill="none" stroke-linecap="round"/>
      
      <!-- Cheeks -->
      <circle cx="-16" cy="4" r="3" fill="#ffb3d6" opacity="0.6"/>
      <circle cx="16" cy="4" r="3" fill="#ffb3d6" opacity="0.6"/>
    </g>
  </g>
  
  <!-- Title -->
  <text x="600" y="380" font-family="Arial, sans-serif" font-size="64" font-weight="bold" text-anchor="middle" fill="url(#textGradient)">
    Adopt Me Fonts
  </text>
  
  <!-- Subtitle -->
  <text x="600" y="440" font-family="Arial, sans-serif" font-size="32" text-anchor="middle" fill="#666666">
    Free Roblox Font Generator
  </text>
  
  <!-- Features -->
  <text x="600" y="520" font-family="Arial, sans-serif" font-size="24" text-anchor="middle" fill="#888888">
    50+ Font Styles • Bubble • Bold • Cute • Aesthetic
  </text>
  
  <!-- Decorative elements -->
  <text x="150" y="100" font-size="48" opacity="0.3">★</text>
  <text x="1050" y="550" font-size="48" opacity="0.3">♡</text>
  <text x="200" y="550" font-size="48" opacity="0.3">✨</text>
  <text x="1000" y="100" font-size="48" opacity="0.3">⭐</text>
</svg>
